<svg width="67" height="67" viewBox="0 0 67 67" fill="none" xmlns="http://www.w3.org/2000/svg">
<mask id="mask0_34_1257" style="mask-type:alpha" maskUnits="userSpaceOnUse" x="0" y="0" width="67" height="67">
<rect width="67" height="67" fill="#D9D9D9"/>
</mask>
<g mask="url(#mask0_34_1257)">
<path d="M22.3334 44.6667H55.8334V11.1667H50.25V30.7083L43.2709 26.5208L36.2917 30.7083V11.1667H22.3334V44.6667ZM22.3334 50.25C20.798 50.25 19.4835 49.7033 18.3901 48.6099C17.2967 47.5165 16.75 46.2021 16.75 44.6667V11.1667C16.75 9.63125 17.2967 8.31684 18.3901 7.22344C19.4835 6.13004 20.798 5.58334 22.3334 5.58334H55.8334C57.3688 5.58334 58.6832 6.13004 59.7766 7.22344C60.87 8.31684 61.4167 9.63125 61.4167 11.1667V44.6667C61.4167 46.2021 60.87 47.5165 59.7766 48.6099C58.6832 49.7033 57.3688 50.25 55.8334 50.25H22.3334ZM11.1667 61.4167C9.63129 61.4167 8.31688 60.87 7.22348 59.7766C6.13008 58.6832 5.58337 57.3688 5.58337 55.8333V16.75H11.1667V55.8333H50.25V61.4167H11.1667Z" fill="#01379D"/>
</g>
</svg>
