<svg width="67" height="67" viewBox="0 0 67 67" fill="none" xmlns="http://www.w3.org/2000/svg">
<mask id="mask0_11_568" style="mask-type:alpha" maskUnits="userSpaceOnUse" x="0" y="0" width="67" height="67">
<rect width="67" height="67" fill="#D9D9D9"/>
</mask>
<g mask="url(#mask0_11_568)">
<path d="M39.0833 27.6375V22.8917C40.6187 22.2403 42.189 21.7518 43.7942 21.4261C45.3994 21.1004 47.0861 20.9375 48.8541 20.9375C50.0639 20.9375 51.2503 21.0306 52.4135 21.2167C53.5767 21.4028 54.7166 21.6354 55.8333 21.9146V26.3813C54.7166 25.9625 53.5883 25.6485 52.4484 25.4391C51.3085 25.2297 50.1104 25.125 48.8541 25.125C47.0861 25.125 45.3878 25.346 43.7593 25.788C42.1309 26.2301 40.5722 26.8465 39.0833 27.6375ZM39.0833 42.9917V38.2459C40.6187 37.5945 42.189 37.1059 43.7942 36.7802C45.3994 36.4545 47.0861 36.2917 48.8541 36.2917C50.0639 36.2917 51.2503 36.3847 52.4135 36.5709C53.5767 36.757 54.7166 36.9896 55.8333 37.2688V41.7354C54.7166 41.3167 53.5883 41.0026 52.4484 40.7933C51.3085 40.5839 50.1104 40.4792 48.8541 40.4792C47.0861 40.4792 45.3878 40.6886 43.7593 41.1073C42.1309 41.5261 40.5722 42.1542 39.0833 42.9917ZM39.0833 35.3146V30.5688C40.6187 29.9174 42.189 29.4288 43.7942 29.1031C45.3994 28.7775 47.0861 28.6146 48.8541 28.6146C50.0639 28.6146 51.2503 28.7077 52.4135 28.8938C53.5767 29.0799 54.7166 29.3125 55.8333 29.5917V34.0584C54.7166 33.6396 53.5883 33.3255 52.4484 33.1162C51.3085 32.9068 50.1104 32.8021 48.8541 32.8021C47.0861 32.8021 45.3878 33.0231 43.7593 33.4651C42.1309 33.9071 40.5722 34.5236 39.0833 35.3146ZM18.1458 44.6667C20.3326 44.6667 22.4612 44.911 24.5317 45.3995C26.6022 45.888 28.6611 46.6209 30.7083 47.5979V20.1C28.8007 18.9834 26.7767 18.1459 24.6364 17.5875C22.4961 17.0292 20.3326 16.75 18.1458 16.75C16.4708 16.75 14.8074 16.9129 13.1557 17.2386C11.504 17.5643 9.91038 18.0528 8.37496 18.7042V46.3417C10.0034 45.7834 11.6203 45.3646 13.2255 45.0854C14.8307 44.8063 16.4708 44.6667 18.1458 44.6667ZM36.2916 47.5979C38.3388 46.6209 40.3977 45.888 42.4682 45.3995C44.5387 44.911 46.6673 44.6667 48.8541 44.6667C50.5291 44.6667 52.1692 44.8063 53.7744 45.0854C55.3797 45.3646 56.9965 45.7834 58.625 46.3417V18.7042C57.0895 18.0528 55.496 17.5643 53.8442 17.2386C52.1925 16.9129 50.5291 16.75 48.8541 16.75C46.6673 16.75 44.5038 17.0292 42.3635 17.5875C40.2232 18.1459 38.1993 18.9834 36.2916 20.1V47.5979ZM33.5 55.8334C31.2666 54.0653 28.8472 52.6927 26.2416 51.7156C23.6361 50.7386 20.9375 50.25 18.1458 50.25C16.1916 50.25 14.2724 50.5059 12.388 51.0177C10.5036 51.5295 8.70065 52.2507 6.97913 53.1813C6.00204 53.6931 5.05986 53.6698 4.15256 53.1115C3.24527 52.5531 2.79163 51.7389 2.79163 50.6688V17.0292C2.79163 16.5174 2.91958 16.0288 3.17548 15.5636C3.43138 15.0983 3.81524 14.7493 4.32704 14.5167C6.46732 13.4 8.70065 12.5625 11.027 12.0042C13.3534 11.4459 15.7263 11.1667 18.1458 11.1667C20.8444 11.1667 23.4849 11.5156 26.0671 12.2136C28.6494 12.9115 31.127 13.9584 33.5 15.3542C35.8729 13.9584 38.3505 12.9115 40.9328 12.2136C43.5151 11.5156 46.1555 11.1667 48.8541 11.1667C51.2736 11.1667 53.6465 11.4459 55.9729 12.0042C58.2993 12.5625 60.5326 13.4 62.6729 14.5167C63.1847 14.7493 63.5685 15.0983 63.8244 15.5636C64.0803 16.0288 64.2083 16.5174 64.2083 17.0292V50.6688C64.2083 51.7389 63.7547 52.5531 62.8474 53.1115C61.9401 53.6698 60.9979 53.6931 60.0208 53.1813C58.2993 52.2507 56.4963 51.5295 54.6119 51.0177C52.7276 50.5059 50.8083 50.25 48.8541 50.25C46.0625 50.25 43.3638 50.7386 40.7583 51.7156C38.1527 52.6927 35.7333 54.0653 33.5 55.8334Z" fill="#01379D"/>
</g>
</svg>
