<svg width="67" height="67" viewBox="0 0 67 67" fill="none" xmlns="http://www.w3.org/2000/svg">
<mask id="mask0_8_109" style="mask-type:alpha" maskUnits="userSpaceOnUse" x="0" y="0" width="67" height="67">
<rect width="67" height="67" fill="#D9D9D9"/>
</mask>
<g mask="url(#mask0_8_109)">
<path d="M39.0834 41.875C39.8743 41.875 40.5606 41.5842 41.1422 41.0026C41.7238 40.421 42.0146 39.7347 42.0146 38.9437C42.0146 38.1528 41.7238 37.4665 41.1422 36.8849C40.5606 36.3033 39.8743 36.0125 39.0834 36.0125C38.2924 36.0125 37.6061 36.3033 37.0245 36.8849C36.4429 37.4665 36.1521 38.1528 36.1521 38.9437C36.1521 39.7347 36.4429 40.421 37.0245 41.0026C37.6061 41.5842 38.2924 41.875 39.0834 41.875ZM36.9896 32.9417H41.1771C41.1771 31.5924 41.3167 30.6036 41.5959 29.9755C41.875 29.3474 42.5264 28.5215 43.55 27.4979C44.9459 26.1021 45.8764 24.9738 46.3417 24.113C46.807 23.2523 47.0396 22.2403 47.0396 21.0771C47.0396 18.9833 46.3068 17.2734 44.8412 15.9474C43.3756 14.6214 41.4563 13.9583 39.0834 13.9583C37.1757 13.9583 35.5124 14.4934 34.0933 15.5635C32.6742 16.6337 31.6855 18.0528 31.1271 19.8208L34.8959 21.3562C35.3146 20.1931 35.8846 19.3207 36.6058 18.7391C37.3269 18.1575 38.1528 17.8667 39.0834 17.8667C40.2 17.8667 41.1073 18.1807 41.8052 18.8089C42.5032 19.437 42.8521 20.2861 42.8521 21.3562C42.8521 22.0076 42.666 22.6241 42.2938 23.2057C41.9216 23.7873 41.2702 24.5201 40.3396 25.4042C38.8042 26.7535 37.862 27.812 37.5131 28.5797C37.1641 29.3474 36.9896 30.8014 36.9896 32.9417ZM22.3334 50.25C20.798 50.25 19.4835 49.7033 18.3901 48.6099C17.2967 47.5165 16.75 46.2021 16.75 44.6667V11.1667C16.75 9.63125 17.2967 8.31684 18.3901 7.22344C19.4835 6.13003 20.798 5.58333 22.3334 5.58333H55.8334C57.3688 5.58333 58.6832 6.13003 59.7766 7.22344C60.87 8.31684 61.4167 9.63125 61.4167 11.1667V44.6667C61.4167 46.2021 60.87 47.5165 59.7766 48.6099C58.6832 49.7033 57.3688 50.25 55.8334 50.25H22.3334ZM22.3334 44.6667H55.8334V11.1667H22.3334V44.6667ZM11.1667 61.4167C9.63129 61.4167 8.31688 60.87 7.22348 59.7766C6.13008 58.6832 5.58337 57.3687 5.58337 55.8333V16.75H11.1667V55.8333H50.25V61.4167H11.1667Z" fill="#01379D"/>
</g>
</svg>
